Coordinates
version=1
nRows=15
nColumns=46
inDegrees=yes

Units are S.I. units (second, meters, Newtons, ...)
Angles are in degrees.

endheader
time	pelvis_tilt	pelvis_list	pelvis_rotation	pelvis_tx	pelvis_ty	pelvis_tz	bb_angle	bb_tx	bb_ty	bb_tz	hip_flexion_r	hip_adduction_r	hip_rotation_r	knee_angle_r	knee_angle_r_beta	ankle_angle_r	subtalar_angle_r	mtp_angle_r	crank_angle_r	hip_flexion_l	hip_adduction_l	hip_rotation_l	knee_angle_l	knee_angle_l_beta	ankle_angle_l	subtalar_angle_l	mtp_angle_l	crank_angle_l	lumbar_extension	lumbar_bending	lumbar_rotation	arm_flex_r	arm_add_r	arm_rot_r	elbow_flex_r	pro_sup_r	wrist_flex_r	wrist_dev_r	arm_flex_l	arm_add_l	arm_rot_l	elbow_flex_l	pro_sup_l	wrist_flex_l	wrist_dev_l
      2.50500000	    -16.60737763	     -2.54788280	     -2.03238071	      0.16821886	      1.15462135	     -0.21271803	      0.00000000	      0.50000000	      0.00000000	      0.25000000	     62.86634161	      0.95661570	      3.41607218	     92.01505603	      1.60596569	     -0.70351783	     -9.18428109	      0.00000000	      0.00000000	     50.73148584	     -6.34553491	      7.17599679	     33.49391421	      0.58457908	     -8.41496746	     -6.85948504	      0.00000000	      0.00000000	    -61.71733265	     -8.17306352	     -7.15605255	     79.15382201	    -12.91103364	     37.63289651	     52.96627819	     48.22735649	      0.00000000	      0.00000000	     82.16007871	    -19.93052846	     27.92763127	     68.83654976	     42.63580500	      0.00000000	      0.00000000
      2.51000000	    -16.32878587	     -3.07240302	     -2.41070836	      0.16948079	      1.15483562	     -0.21335405	      0.00000000	      0.50000000	      0.00000000	      0.25000000	     63.36289907	      1.41181433	      3.10620548	     93.14557744	      1.62569701	     -0.43477328	     -9.00587509	      0.00000000	      0.00000000	     49.57212841	     -7.13196852	      6.92034600	     32.31273552	      0.56396363	     -9.47717468	     -6.17285713	      0.00000000	      0.00000000	    -61.50193033	     -7.73245430	     -6.22829431	     79.13195000	    -12.81537428	     37.72105765	     52.76211544	     48.22217216	      0.00000000	      0.00000000	     81.48050949	    -20.11993777	     27.98433946	     68.62164355	     42.65047296	      0.00000000	      0.00000000
      2.51500000	    -15.76344254	     -3.52312398	     -2.93475197	      0.17077687	      1.15556117	     -0.21362887	      0.00000000	      0.50000000	      0.00000000	      0.25000000	     63.53605760	      2.00043710	      2.97562191	     94.23741047	      1.64475309	     -0.01211581	     -8.57191843	      0.00000000	      0.00000000	     48.03475476	     -8.01534517	      6.35107568	     31.11774471	      0.54310710	    -10.38022768	     -5.35345422	      0.00000000	      0.00000000	    -61.58539135	     -7.50662451	     -5.15497410	     79.42149594	    -12.68693712	     37.92765818	     51.68378375	     48.13570151	      0.00000000	      0.00000000	     80.93464031	    -19.79488097	     27.90012923	     68.04559363	     42.70214533	      0.00000000	      0.00000000
      2.52000000	    -15.56640532	     -3.99217345	     -3.25257638	      0.17186372	      1.15560019	     -0.21417051	      0.00000000	      0.50000000	      0.00000000	      0.25000000	     64.14933265	      2.38642314	      2.65736413	     95.33811221	      1.66396396	      0.28853185	     -8.47808293	      0.00000000	      0.00000000	     46.96052019	     -8.72164208	      6.09282484	     29.96286147	      0.52295059	    -11.46877869	     -4.58553554	      0.00000000	      0.00000000	    -61.31109132	     -7.01232089	     -4.23848601	     79.45928790	    -12.61018919	     37.99977497	     51.45546214	     48.12288363	      0.00000000	      0.00000000	     80.28384525	    -19.93216877	     27.97650129	     67.64430455	     42.68542827	      0.00000000	      0.00000000
      2.52500000	    -14.98527647	     -4.32426849	     -3.73537049	      0.17306800	      1.15634419	     -0.21460328	      0.00000000	      0.50000000	      0.00000000	      0.25000000	     64.32932011	      2.84861346	      2.59759449	     96.37826174	      1.68211799	      0.73652139	     -8.10714855	      0.00000000	      0.00000000	     45.37035390	     -9.46485369	      5.39499995	     28.77405549	      0.50220201	    -12.35321021	     -3.65591574	      0.00000000	      0.00000000	    -61.39445458	     -6.84855378	     -3.10259599	     79.80023194	    -12.67923152	     38.23971514	     50.21758735	     48.02229845	      0.00000000	      0.00000000	     79.99721596	    -19.20593820	     28.09394967	     66.38316550	     42.65769727	      0.00000000	      0.00000000
      2.53000000	    -14.81115018	     -4.73586388	     -4.03407150	      0.17403280	      1.15638382	     -0.21539609	      0.00000000	      0.50000000	      0.00000000	      0.25000000	     64.96439793	      3.15403375	      2.30380413	     97.38032273	      1.69960726	      1.03255360	     -8.01821019	      0.00000000	      0.00000000	     44.32639910	    -10.08691891	      5.08002946	     27.66048823	      0.48276659	    -13.50145998	     -2.85480674	      0.00000000	      0.00000000	    -61.11574194	     -6.35226435	     -2.24196641	     79.84471941	    -12.70531371	     38.30917158	     50.03374637	     48.01864595	      0.00000000	      0.00000000	     79.36450602	    -19.26389073	     28.24936747	     65.88907038	     42.63730308	      0.00000000	      0.00000000
      2.53500000	    -14.61032874	     -5.07080081	     -4.33529184	      0.17487428	      1.15642806	     -0.21614475	      0.00000000	      0.50000000	      0.00000000	      0.25000000	     65.56679183	      3.48141575	      2.14211939	     98.36705236	      1.71682894	      1.45580340	     -7.94694980	      0.00000000	      0.00000000	     43.27297314	    -10.65092314	      4.64450242	     26.59962645	      0.46425106	    -14.60740119	     -2.06353411	      0.00000000	      0.00000000	    -60.92336811	     -5.84545520	     -1.30645347	     79.99771552	    -12.82869157	     38.30365472	     49.77688271	     47.98766872	      0.00000000	      0.00000000	     78.82156266	    -19.24233090	     28.44008967	     65.41625380	     42.61443224	      0.00000000	      0.00000000
      2.54000000	    -14.40423339	     -5.42074940	     -4.64768695	      0.17569289	      1.15664723	     -0.21680262	      0.00000000	      0.50000000	      0.00000000	      0.25000000	     66.11008134	      3.87795705	      2.01210448	     99.24564291	      1.73216324	      1.90202528	     -7.80343666	      0.00000000	      0.00000000	     42.19328913	    -11.24147290	      4.16722223	     25.52472233	      0.44549045	    -15.82735373	     -1.25111096	      0.00000000	      0.00000000	    -60.75610766	     -5.40836420	     -0.35205511	     80.12277344	    -12.97541161	     38.33441481	     49.44729165	     47.94921335	      0.00000000	      0.00000000	     78.33611313	    -19.08205872	     28.70639279	     64.88430516	     42.58884226	      0.00000000	      0.00000000
      2.54500000	    -13.79813754	     -5.51744502	     -5.05439616	      0.17650212	      1.15757674	     -0.21734010	      0.00000000	      0.50000000	      0.00000000	      0.25000000	     66.24683172	      4.21269531	      2.20458701	    100.10832857	      1.74721994	      2.52754499	     -7.35414572	      0.00000000	      0.00000000	     40.58609601	    -11.68732296	      3.16726908	     24.40914957	      0.42602003	    -16.92034199	     -0.45310341	      0.00000000	      0.00000000	    -60.92714105	     -5.44075093	      0.99210732	     80.48568655	    -13.84627835	     38.93731044	     48.25027364	     47.92352494	      0.00000000	      0.00000000	     78.97512607	    -17.30999785	     29.53642777	     61.88227082	     42.40126691	      0.00000000	      0.00000000
      2.55000000	    -13.74790010	     -5.81031922	     -5.24646904	      0.17699568	      1.15737662	     -0.21824054	      0.00000000	      0.50000000	      0.00000000	      0.25000000	     67.01424330	      4.48774284	      2.10369387	    100.98134329	      1.76245692	      2.94817351	     -7.35465004	      0.00000000	      0.00000000	     39.83500767	    -12.10158487	      2.80274548	     23.62515152	      0.41233668	    -18.09447407	      0.15825688	      0.00000000	      0.00000000	    -60.67821717	     -4.84764217	      1.78134360	     80.65932198	    -13.96358758	     38.94373951	     48.24468998	     47.93378292	      0.00000000	      0.00000000	     78.43019822	    -17.35012470	     29.70503392	     61.50995538	     42.39485389	      0.00000000	      0.00000000
      2.55500000	    -13.41808135	     -5.96982043	     -5.55295278	      0.17769673	      1.15804630	     -0.21883236	      0.00000000	      0.50000000	      0.00000000	      0.25000000	     67.41849715	      4.84977414	      2.24114209	    101.70477146	      1.77508313	      3.42471062	     -6.93795255	      0.00000000	      0.00000000	     38.58074536	    -12.48624861	      2.05206015	     22.57072772	      0.39393351	    -19.39972204	      0.83905057	      0.00000000	      0.00000000	    -60.70653806	     -4.64227422	      2.94287306	     80.86635859	    -14.79422186	     39.41945464	     47.92413927	     48.03431660	      0.00000000	      0.00000000	     78.67234800	    -16.22655526	     30.31927867	     59.54095803	     42.39985351	      0.00000000	      0.00000000
      2.56000000	    -13.34641853	     -6.22234154	     -5.71670997	      0.17807465	      1.15812613	     -0.21970319	      0.00000000	      0.50000000	      0.00000000	      0.25000000	     68.12041958	      5.09962426	      2.16828706	    102.40755340	      1.78734899	      4.00951992	     -6.97669039	      0.00000000	      0.00000000	     37.82320383	    -12.84671041	      1.58721932	     21.79867875	      0.38045872	    -20.67500800	      1.41163329	      0.00000000	      0.00000000	    -60.57356119	     -4.05751218	      3.66630874	     81.07080521	    -14.88927175	     39.44911350	     47.85659133	     48.03874592	      0.00000000	      0.00000000	     78.26940776	    -16.20611105	     30.47928583	     59.19730182	     42.41156545	      0.00000000	      0.00000000
      2.56500000	    -13.15276261	     -6.35554096	     -5.98216056	      0.17859544	      1.15860396	     -0.22030054	      0.00000000	      0.50000000	      0.00000000	      0.25000000	     68.67902636	      5.42179251	      2.26509754	    103.04814306	      1.79852938	      4.47294752	     -6.69519788	      0.00000000	      0.00000000	     36.80022134	    -13.15993894	      0.89500779	     20.87802835	      0.36439034	    -22.04317294	      1.92572118	      0.00000000	      0.00000000	    -60.59067508	     -3.74815528	      4.45416887	     81.38915829	    -15.13059616	     39.61370756	     47.48680148	     48.02232479	      0.00000000	      0.00000000	     78.09691440	    -15.88262689	     30.78651446	     58.48096712	     42.42856886	      0.00000000	      0.00000000
      2.57000000	    -13.11302522	     -6.51486020	     -6.06897540	      0.17873906	      1.15865375	     -0.22123356	      0.00000000	      0.50000000	      0.00000000	      0.25000000	     69.42867626	      5.57047825	      2.24131214	    103.65010933	      1.80903568	      4.85378240	     -6.75904568	      0.00000000	      0.00000000	     36.17954945	    -13.37196768	      0.40814836	     20.28083342	      0.35396732	    -23.28347267	      2.44547904	      0.00000000	      0.00000000	    -60.52275027	     -3.08980254	      5.04386436	     81.84010557	    -15.13735078	     39.60586379	     47.46194166	     48.01807643	      0.00000000	      0.00000000	     77.80302657	    -15.99246894	     30.87463753	     58.11998920	     42.40917375	      0.00000000	      0.00000000
      2.57500000	    -12.76279118	     -6.52754487	     -6.31394213	      0.17901640	      1.15951343	     -0.22186169	      0.00000000	      0.50000000	      0.00000000	      0.25000000	     69.80916163	      5.84199565	      2.48499245	    104.15807567	      1.81790136	      5.26231562	     -6.55219988	      0.00000000	      0.00000000	     34.95291468	    -13.52965428	     -0.32188530	     19.28912905	      0.33665881	    -24.79521494	      2.91968915	      0.00000000	      0.00000000	    -60.75093189	     -2.89570271	      5.63781427	     82.42042506	    -15.28079919	     40.07707797	     46.69292996	     47.97372221	      0.00000000	      0.00000000	     77.98619083	    -15.60980734	     31.20182088	     57.06410275	     42.41574862	      0.00000000	      0.00000000
